<svg width="22" height="22" viewBox="0 0 22 22" fill="none" xmlns="http://www.w3.org/2000/svg">
<path fill-rule="evenodd" clip-rule="evenodd" d="M18.6788 7.67112C19.7009 6.64905 19.7009 4.99193 18.6788 3.96986L18.062 3.35298C17.0399 2.33091 15.3828 2.33091 14.3607 3.35298L4.42696 13.2867C4.06607 13.6476 3.81857 14.1061 3.71493 14.6059L3.01382 17.9866C2.88633 18.6014 3.43043 19.1455 4.04519 19.018L7.42591 18.3169C7.92567 18.2132 8.38421 17.9657 8.7451 17.6049L18.6788 7.67112ZM17.4451 5.20361L16.8282 4.58674C16.4875 4.24604 15.9351 4.24604 15.5945 4.58674L14.6691 5.51208L16.5197 7.36271L17.4451 6.43737C17.7858 6.09668 17.7858 5.54431 17.4451 5.20361ZM15.286 8.59647L13.4354 6.74583L5.66071 14.5205C5.54041 14.6408 5.45792 14.7936 5.42337 14.9602L4.99211 17.0397L7.07162 16.6084C7.2382 16.5739 7.39105 16.4914 7.51135 16.3711L15.286 8.59647Z" fill="#2B4AFF"/>
</svg>
