<svg width="22" height="22" viewBox="0 0 22 22" fill="none" xmlns="http://www.w3.org/2000/svg">
<path d="M9.22428 9.03719C9.7061 9.03719 10.0967 9.42778 10.0967 9.90959V15.144C10.0967 15.6258 9.7061 16.0164 9.22428 16.0164C8.74247 16.0164 8.35189 15.6258 8.35189 15.144V9.90959C8.35189 9.42778 8.74247 9.03719 9.22428 9.03719Z" fill="#F15338"/>
<path d="M13.5863 9.90959C13.5863 9.42778 13.1957 9.03719 12.7139 9.03719C12.2321 9.03719 11.8415 9.42778 11.8415 9.90959V15.144C11.8415 15.6258 12.2321 16.0164 12.7139 16.0164C13.1957 16.0164 13.5863 15.6258 13.5863 15.144V9.90959Z" fill="#F15338"/>
<path fill-rule="evenodd" clip-rule="evenodd" d="M16.2035 5.76571V4.89331C16.2035 3.44788 15.0317 2.27612 13.5863 2.27612H8.35189C6.90646 2.27612 5.7347 3.44788 5.7347 4.89331V5.76571H4.42611C3.9443 5.76571 3.55371 6.15629 3.55371 6.6381C3.55371 7.11991 3.9443 7.5105 4.42611 7.5105H4.8623V17.1069C4.8623 18.5523 6.03406 19.724 7.47949 19.724H14.4587C15.9041 19.724 17.0758 18.5523 17.0758 17.1069V7.5105H17.512C17.9939 7.5105 18.3844 7.11991 18.3844 6.6381C18.3844 6.15629 17.9939 5.76571 17.512 5.76571H16.2035ZM13.5863 4.02091H8.35189C7.87008 4.02091 7.47949 4.4115 7.47949 4.89331V5.76571H14.4587V4.89331C14.4587 4.4115 14.0681 4.02091 13.5863 4.02091ZM15.3311 7.5105H6.6071V17.1069C6.6071 17.5887 6.99768 17.9792 7.47949 17.9792H14.4587C14.9405 17.9792 15.3311 17.5887 15.3311 17.1069V7.5105Z" fill="#F15338"/>
</svg>
